<svg id="Layer_1" data-name="Layer 1" xmlns="http://www.w3.org/2000/svg" viewBox="0 0 162 136"><defs><style>.cls-1{fill:#062b3f;}</style></defs><path class="cls-1" d="M92.1,38c0-1.49-.19-1.69-1.68-1.69H61c-1.1,0-1.42.26-1.41,1.4,0,2.29,0,4.59.17,6.88a55.86,55.86,0,0,0,3.13,16.07,23.08,23.08,0,0,0,6.43,10.08c2.52,2.15,5.38,3.21,8.71,2.34a12.05,12.05,0,0,0,6.14-4.25,29.63,29.63,0,0,0,5.7-12A69.57,69.57,0,0,0,92.1,38ZM82.57,53.14a16.66,16.66,0,0,1-1.77,1.69,1.3,1.3,0,0,0-.49,1.32c.16.83.31,1.66.42,2.49.16,1.31-.71,2-1.91,1.41-.82-.36-1.62-.75-2.42-1.16a1.35,1.35,0,0,0-1.41,0,22.43,22.43,0,0,1-2.43,1.15c-1.12.43-1.66,0-1.63-1.18.12-.94.28-1.87.33-2.82A1.75,1.75,0,0,0,70.87,55c-.57-.65-1.25-1.21-1.85-1.84-.84-.88-.66-1.58.53-1.85.89-.22,1.82-.26,2.72-.47a1.65,1.65,0,0,0,.88-.63c.55-.81,1-1.69,1.51-2.51a1.26,1.26,0,0,1,2.3-.09,23.41,23.41,0,0,1,1.44,2.54,1.28,1.28,0,0,0,1.1.76,18.92,18.92,0,0,1,2.49.37A1.48,1.48,0,0,1,83,52,1.53,1.53,0,0,1,82.57,53.14Z"/><path class="cls-1" d="M92.11,94c0-1.14-.36-1.45-1.49-1.45H87.79V82c0-1.45-.29-1.75-1.76-1.75l-14.31,0c-2,0-4.06,0-6.09,0-1.43,0-1.79.36-1.79,1.76l0,9.65v1c-.85,0-1.55,0-2.26,0-1.94,0-2,.09-2,2,0,1.54.19,1.73,1.72,1.73H89.92C92.06,96.33,92.2,96.18,92.11,94Z"/><path class="cls-1" d="M102.12,43.31c-.49,10.07-4.92,17.8-13.68,22.94a1.54,1.54,0,0,1-.28.09C88.8,65,89.45,63.62,90,62.26a12.85,12.85,0,0,1,2.1-3.4,24.89,24.89,0,0,0,5.53-11.39c.43-2.1.15-2.42-2-2.43H93.6c.05-1.1.1-2.09.15-3.11a5.73,5.73,0,0,1,.59-.09l6.24,0C101.76,41.81,102.18,42.19,102.12,43.31Z"/><path class="cls-1" d="M63.44,66.41c-1-.6-1.85-1.09-2.66-1.68-6.91-5.06-10.52-12-11.27-20.41-.2-2.26.05-2.48,2.34-2.49,1.77,0,3.53,0,5.3,0,.59,0,.86.16.83.8s0,1.52,0,2.42H55.34c-1.3,0-1.73.48-1.5,1.74a22,22,0,0,0,2.63,7.49c1,1.71,2.27,3.29,3.38,5a22.2,22.2,0,0,1,1.46,2.49C62,63.21,62.68,64.74,63.44,66.41Z"/><path class="cls-1" d="M79.91,78.3H71.78c.23-1.18.46-2.3.7-3.51.5.08,1,.14,1.47.23a8.38,8.38,0,0,0,4.36-.15c.67-.22,1-.1,1.08.69S79.72,77.35,79.91,78.3Z"/><path class="cls-1" d="M79,54.63A1.41,1.41,0,0,0,78.57,56c.12.64.22,1.28.36,2.06-.8-.31-1.48-.52-2.11-.83a2.33,2.33,0,0,0-2.26,0c-.56.29-1.13.54-1.81.86a8.66,8.66,0,0,0,.11-2.84A8.34,8.34,0,0,0,71.32,53a10.93,10.93,0,0,0,2.75-1.3,11.64,11.64,0,0,0,1.73-2.63,11.48,11.48,0,0,0,1.74,2.68A10.33,10.33,0,0,0,80.31,53,20,20,0,0,1,79,54.63Z"/></svg>