<svg id="Layer_1" data-name="Layer 1" xmlns="http://www.w3.org/2000/svg" viewBox="0 0 137 143"><defs><style>.cls-1{fill:#062b3f;}</style></defs><path class="cls-1" d="M87.26,90.47c-.68,0-1.37,0-2.19,0,0-2.21.09-4.28,0-6.33a10.27,10.27,0,0,0-4.49-8.33c-1.43-1-3-1.81-4.44-2.7a4.56,4.56,0,0,1,0-8.12c1-.6,2-1.18,3-1.76,3.15-1.84,5.28-4.43,5.69-8.13.23-2.14.18-4.3.26-6.45,0-.32,0-.65,0-.91a1,1,0,0,1,.28-.11l1.76,0c1,0,1.17-.19,1.17-1.19,0-1.88,0-3.76,0-5.63,0-1.31-.13-1.44-1.44-1.44H52.68c-2.55,0-5.09,0-7.64,0-.79,0-1.12.34-1.11,1.11,0,2,0,4,0,6,0,.92.2,1.1,1.15,1.11h2.06c0,.43,0,.73,0,1,0,1.79,0,3.59.1,5.38a10.46,10.46,0,0,0,4.66,8.41c1.46,1,3,1.79,4.51,2.74A4.54,4.54,0,0,1,56.34,73c-1.17.71-2.37,1.36-3.55,2.07a10.86,10.86,0,0,0-5.57,9.54c-.06,1.9,0,3.8,0,5.84-.81,0-1.45,0-2.09,0-.95,0-1.18.24-1.19,1.21v5.7c0,1.25.17,1.42,1.4,1.42H87.05c1.08,0,1.31-.22,1.31-1.24,0-2,0-4,0-6C88.38,90.82,88,90.45,87.26,90.47ZM82,90.4H50.14c0-2.65-.21-5.29.38-7.87a7.23,7.23,0,0,1,3.41-4.6c1.19-.74,2.4-1.43,3.61-2.13,5.47-3.18,5.49-10.22,0-13.45-1.3-.77-2.62-1.51-3.88-2.33a7.23,7.23,0,0,1-3.4-6c-.1-2.11,0-4.23,0-6.41H82.14c0,1.56,0,3.08,0,4.61a8.93,8.93,0,0,1-5.35,8.92c-.8.39-1.56.86-2.33,1.32a7.55,7.55,0,0,0,0,13.1c1.29.78,2.62,1.5,3.9,2.3A7.47,7.47,0,0,1,82,84.22C82.11,86.25,82,88.29,82,90.4Z"/><path class="cls-1" d="M57.83,58.56a20.11,20.11,0,0,0,1.84,1A20.11,20.11,0,0,1,57.83,58.56Z"/><path class="cls-1" d="M78.17,88.22H54a39.16,39.16,0,0,1,.54-5.17,4.64,4.64,0,0,1,1.71-2.28,32.79,32.79,0,0,1,8.29-4.13,5,5,0,0,1,4,.27c2.27,1.08,4.55,2.15,6.78,3.31a5.23,5.23,0,0,1,2.87,5.19C78.15,86.32,78.17,87.24,78.17,88.22Z"/><path class="cls-1" d="M75.31,57.88a12,12,0,0,1-4.2,2.49c-.44.19-.89.34-1.33.5a5.47,5.47,0,0,0-2.93,2.38,1.79,1.79,0,0,1-.33.41l-.06.05a.69.69,0,0,1-.81.15.81.81,0,0,1-.27-.23,1.24,1.24,0,0,1-.16-.24,5.72,5.72,0,0,0-1-1.3L64,61.88A9.71,9.71,0,0,0,61.2,60.3c-.52-.21-1-.43-1.53-.69a20.11,20.11,0,0,1-1.84-1c-.23-.16-.48-.32-.71-.49a17.67,17.67,0,0,1-1.75-1.43,18.57,18.57,0,0,1,2.29-1.47,9,9,0,0,1,6.08-.29c.56.14,1.12.31,1.68.5s1.26.46,1.89.69,1.26.47,1.89.69A16.6,16.6,0,0,0,75.31,57.88Z"/></svg>