<svg id="Layer_1" data-name="Layer 1" xmlns="http://www.w3.org/2000/svg" viewBox="0 0 133 136"><defs><style>.cls-1{fill:#062b3f;}</style></defs><path class="cls-1" d="M68.61,42A30.75,30.75,0,1,0,99.34,72.75,30.71,30.71,0,0,0,68.61,42Zm-.1,55.6a24.86,24.86,0,1,1,24.94-24.7A24.87,24.87,0,0,1,68.51,97.56Z"/><path class="cls-1" d="M73.38,40.11H63.63A19.85,19.85,0,0,1,64.29,36a4.56,4.56,0,0,1,5.24-2.74,4.79,4.79,0,0,1,3.84,4.33C73.44,38.46,73.38,39.31,73.38,40.11Z"/><path class="cls-1" d="M82.44,85.77c-2.91-5.22-5.77-10.47-8.78-15.64A7.5,7.5,0,0,0,71,67.55C66.7,65,62.3,62.63,57.93,60.19c-.88-.48-1.75-1-2.64-1.45a2.27,2.27,0,0,0-.7-.05,5.43,5.43,0,0,0,0,.7,1.19,1.19,0,0,0,.18.33Q59,67.36,63.28,75a7.44,7.44,0,0,0,3,3c3.15,1.72,6.26,3.5,9.39,5.25,2.07,1.15,4.13,2.29,6.19,3.45.42.23.77.34.85-.36C82.64,86.16,82.55,86,82.44,85.77ZM68.58,75.17A2.45,2.45,0,1,1,71,72.71,2.4,2.4,0,0,1,68.58,75.17Z"/><path class="cls-1" d="M70.78,56.32c0,.18-.26.53-.35.51a1.48,1.48,0,0,1-.94-.37,26.2,26.2,0,0,0-1.91-2.57c0,.75,0,1.5,0,2.25,0,.4,0,.74-.58.74s-.61-.29-.61-.72c0-1.41,0-2.83,0-4.24,0-.26.23-.74.32-.74a1.64,1.64,0,0,1,1,.37c.61.79,1.1,1.66,1.64,2.5l.21-.07a21.11,21.11,0,0,1,0-2.25c0-.22.36-.5.6-.56s.52.33.53.52C70.82,53.23,70.81,54.78,70.78,56.32Z"/><path class="cls-1" d="M70.38,93.44c-.18.81-1,1.32-2.32,1.33a4.1,4.1,0,0,1-1-.29.77.77,0,0,1-.21-.7.73.73,0,0,1,.61-.31c.58.1,1.3.5,1.57-.22s-.63-.85-1.09-1.11c-1-.57-1.4-1.45-.91-2.31a2.2,2.2,0,0,1,2.84-.69.65.65,0,0,1,.21.6.75.75,0,0,1-.56.43c-.5,0-1.14-.42-1.34.3-.06.19.65.67,1.07.91A1.78,1.78,0,0,1,70.38,93.44Z"/><path class="cls-1" d="M52.85,72.73c0,.69-.48,1-1.14,1H47.94a1,1,0,0,1-1.09-.95.94.94,0,0,1,1-1c1.32,0,2.64,0,4,0A.94.94,0,0,1,52.85,72.73Z"/><path class="cls-1" d="M90.34,72.77c0,.66-.52,1-1.18,1s-1.2,0-1.79,0H85.48c-.66,0-1.11-.31-1.13-1a.93.93,0,0,1,1-1c1.29,0,2.58,0,3.87,0C89.87,71.75,90.39,72.07,90.34,72.77Z"/><path class="cls-1" d="M71,72.71a2.41,2.41,0,1,1-4.82,0,2.41,2.41,0,1,1,4.82,0Z"/></svg>